<?xml version="1.0" encoding="utf-8"?>
<!-- Generator: Adobe Illustrator 24.3.0, SVG Export Plug-In . SVG Version: 6.00 Build 0)  -->
<svg version="1.1" id="Layer_1" xmlns="http://www.w3.org/2000/svg" xmlns:xlink="http://www.w3.org/1999/xlink" x="0px" y="0px"
	 width="256px" height="256px" viewBox="0 0 256 256" enable-background="new 0 0 256 256" xml:space="preserve">
<path fill="#FFFFFF" d="M91.9,18.4L87,85.6h-1.6l-4.9-67.2h-31l-4.7,67.2h-1.6l-4.9-67.2H16.1v19.7l12.6,93.7h30.8l4.9-68.8h1.6
	l4.9,68.8h30.8l12.6-93.7V18.4H91.9z M226.3,79.6c6.1-2.7,10.5-7.4,10.5-18.3V37h0c0-19.7-17.1-18.6-17.1-18.6l0,0h-44.1v113.4h25.1
	V87.7h2.7l14.5,44.1h22v-15.9L226.3,79.6z M211.7,65.6l-1.6,1.6h-9.4V38.8h9.4l1.6,1.6V65.6z M16.2,219.3v18.3h55v-21.2H41.5
	l29.6-62.1v-18.3h-55v21.2h29.6L16.2,219.3z M239.9,136.1h-45.7v101.6h45.7v-21.2h-23.1v-19.6H235l2.4-21.2h-20.7v-18.5h23.1V136.1z
	 M169.8,237.6h19.7V136.1h-19.7v44.3h-1.4l-14.1-44.3h-19.7v101.6h19.7v-44.3h1.4L169.8,237.6z M119.4,136.1h-33
	c-6.2,2.3-11,6.2-11,16.9v67.7c0,10.7,4.8,14.7,11,16.9h33c6.2-2.3,11-6.2,11-16.9V153C130.4,142.3,125.6,138.3,119.4,136.1z
	 M107.9,217.9l-1.4,1.4h-7.1l-1.4-1.4v-62l1.4-1.4h7.1l1.4,1.4V217.9z M157.3,18.4H123l-14.3,94.3v19h23.6l1.9-22h11.9l1.9,22h23.6
	v-19L157.3,18.4z M136.2,86.1l3.1-35.8h1.6l3.1,35.8H136.2z"/>
</svg>
